<?xml version="1.0" encoding="utf-8"?>
<!-- Generator: Adobe Illustrator 21.0.0, SVG Export Plug-In . SVG Version: 6.00 Build 0)  -->
<svg version="1.1" id="Layer_1" xmlns="http://www.w3.org/2000/svg" xmlns:xlink="http://www.w3.org/1999/xlink" x="0px" y="0px"
	 viewBox="0 0 455.1718445 118.8191986" style="enable-background:new 0 0 455.1718445 118.8191986;" xml:space="preserve">
<style type="text/css">
	.st0{fill:#3FA348;}
	.st1{fill:#F9A850;}
	.st2{fill:#8DC541;}
	.st3{fill:#F4A336;}
</style>
<g>
	<path class="st0" d="M103.2515335,16.015358c8.0628128,9.5417824,12.9261856,21.8743134,12.9261856,35.3446426
		c0,30.2634964-24.5334244,54.7968903-54.7969246,54.7968903c-30.2634659,0-54.7968903-24.5333939-54.7968903-54.7968903
		c0-19.1512146,9.8268223-36.0045242,24.7108727-45.8014336C12.6412354,15.8259201,0,35.6683121,0,58.4654274
		c0,33.3324699,27.0213032,60.3537712,60.353775,60.3537712s60.3537445-27.0213013,60.3537445-60.3537712
		C120.7075195,41.913063,114.0421524,26.919054,103.2515335,16.015358z"/>
	<path class="st1" d="M66.1463089,96.4678116c-26.353157,0-47.7166405-21.3634491-47.7166405-47.7166405
		c0-26.353157,21.3634834-47.7166443,47.7166405-47.7166443c2.595665,0,5.1419144,0.210326,7.6251221,0.6091754
		C69.634201,0.5715023,65.2953491,0,60.8228493,0C32.3993073,0,9.3575058,23.0418015,9.3575058,51.4653091
		c0,28.4235382,23.0418015,51.4653397,51.4653435,51.4653397c21.7845421,0,40.4071999-13.5353546,47.9184761-32.6547012
		C100.8733826,85.8148651,84.7546997,96.4678116,66.1463089,96.4678116z"/>
	<circle class="st1" cx="54.2076645" cy="34.9449158" r="12.5360088"/>
	<path class="st2" d="M59.4773331,65.6859436c0,0-10.9420853-9.4773979-21.2810631-9.9081879
		c0,0,14.3884125,6.2033882,21.2810631,16.6285248c0,0,1.4646873,9.4773941,6.1172256,14.3022461
		c0,0-15.6807785,0.1723175-24.210434-6.806488c-8.5296593-6.9788132-11.5451927-16.1977348-12.1483002-18.5240021
		c-0.6031055-2.3262711-2.1539516-8.9604492-4.3940639-10.5974541c0,0,20.2471638-3.6186409,34.9802017,6.6341782
		C59.8219643,57.4147606,59.3911743,61.3780365,59.4773331,65.6859436z"/>
	<path class="st0" d="M91.6655807,36.0589867c0,0-26.19207,12.9092293-23.8658066,46.9561882
		c0,0-9.8220253-12.4067764-4.1355896-28.4321861s24.1673584-27.0105782,40.0635376-31.4046421
		c0,0-0.1292419,13.364603,0.5169449,19.1536922s0.9046631,29.9564438-29.0783691,43.9140625
		C75.1662979,86.2461014,69.0059891,57.0815735,91.6655807,36.0589867z"/>
	<g>
		<g>
			<path class="st3" d="M159.1547394,85.1039352c0.7539063,0,1.0400391,0.3642578,0.9101563,1.0917969l-0.4160156,2.3398438
				c-0.1298828,0.7548828-0.5458984,1.1181641-1.3007813,1.1181641h-3.8476563l-2.2617188,12.8183594
				c-0.1308594,0.7285156-0.5722656,1.0927734-1.3007813,1.0927734h-2.9375c-0.7539063,0-1.0400391-0.3642578-0.9101563-1.0927734
				l2.2617188-12.8183594h-3.8740234c-0.4160156,0-0.6757813-0.078125-0.8056641-0.2597656
				c-0.1298828-0.15625-0.1826172-0.4423828-0.1044922-0.8583984l0.4160156-2.3398438
				c0.1298828-0.7275391,0.5722656-1.0917969,1.2998047-1.0917969H159.1547394z"/>
			<path class="st3" d="M165.6537628,90.0443649c0.6757813,0,0.9619141,0.3378906,0.8320313,0.9873047l-2.0283203,11.5449219
				c-0.1298828,0.6503906-0.5195313,0.9882813-1.1962891,0.9882813h-2.8339844
				c-0.6757813,0-0.9619141-0.3378906-0.8320313-0.9882813l2.0283203-11.5449219
				c0.1298828-0.6494141,0.5195313-0.9873047,1.1962891-0.9873047H165.6537628z M165.8100128,84.7914352
				c0.7539063,0,1.2216797,0.1308594,1.4560547,0.4160156c0.2333984,0.2861328,0.2597656,0.7802734,0.1298828,1.5087891
				l-0.0517578,0.2861328c-0.1308594,0.7275391-0.3642578,1.2216797-0.6767578,1.5078125
				c-0.3115234,0.2861328-0.8320313,0.4160156-1.5859375,0.4160156h-1.2998047
				c-0.7539063,0-1.2226563-0.1298828-1.4560547-0.4160156c-0.234375-0.2861328-0.2597656-0.7802734-0.1298828-1.5078125
				l0.0253906-0.2861328c0.1308594-0.7285156,0.3642578-1.2226563,0.7021484-1.5087891
				c0.3378906-0.2851563,0.8583984-0.4160156,1.5859375-0.4160156H165.8100128z"/>
			<path class="st3" d="M176.4701691,89.6537399c1.9501953,0,3.3535156,0.5205078,4.1601563,1.5341797
				c0.7802734,0.9619141,1.0136719,2.3662109,0.7021484,4.1865234l-1.2744141,7.2021484
				c-0.1298828,0.6503906-0.5205078,0.9882813-1.1699219,0.9882813h-2.8603516
				c-0.6503906,0-0.9355469-0.3378906-0.8056641-0.9882813l1.2480469-7.1240234
				c0.1816406-0.9619141-0.2607422-1.4306641-1.2998047-1.4306641c-0.4423828,0-0.8320313,0.0263672-1.1708984,0.1044922
				c-0.0253906,0.0253906-0.0771484,0.0517578-0.1035156,0.1035156l-1.4560547,8.3466797
				c-0.1298828,0.6503906-0.5205078,0.9882813-1.1962891,0.9882813h-2.8339844
				c-0.6757813,0-0.9619141-0.3378906-0.8320313-0.9882813l1.8457031-10.4003906
				c0.1298828-0.7539063,0.5986328-1.2744141,1.3525391-1.5605469
				C172.5180206,89.9662399,174.4154816,89.6537399,176.4701691,89.6537399z"/>
			<path class="st3" d="M190.1977081,84.3236618c0.6757813,0,0.9619141,0.3378906,0.8320313,0.9882813l-0.8056641,4.4462891
				c0.6240234-0.078125,1.2216797-0.1044922,1.7939453-0.1044922c3.9257813,0,5.5380859,1.8984375,4.8623047,5.6943359
				l-1.2744141,7.2285156c-0.1298828,0.6503906-0.5195313,0.9882813-1.1699219,0.9882813h-2.8603516
				c-0.6494141,0-0.9355469-0.3378906-0.8056641-0.9882813l1.2480469-7.1240234
				c0.1816406-0.9619141-0.2597656-1.4306641-1.2998047-1.4306641c-0.5458984,0-0.9619141,0.0263672-1.2480469,0.1044922
				l-1.4824219,8.4501953c-0.1298828,0.6503906-0.5195313,0.9882813-1.1962891,0.9882813h-2.8339844
				c-0.6757813,0-0.9619141-0.3378906-0.8320313-0.9882813l3.0419922-17.2646484
				c0.1298828-0.6503906,0.5205078-0.9882813,1.1962891-0.9882813H190.1977081z"/>
			<path class="st3" d="M215.4438019,84.3236618c0.6757813,0,0.9619141,0.3378906,0.8320313,0.9882813l-0.8056641,4.4462891
				c0.6240234-0.078125,1.2216797-0.1044922,1.7939453-0.1044922c3.9257813,0,5.5380859,1.8984375,4.8623047,5.6943359
				l-1.2744141,7.2285156c-0.1298828,0.6503906-0.5195313,0.9882813-1.1699219,0.9882813h-2.8603516
				c-0.6494141,0-0.9355469-0.3378906-0.8056641-0.9882813l1.2480469-7.1240234
				c0.1816406-0.9619141-0.2597656-1.4306641-1.2998047-1.4306641c-0.5458984,0-0.9619141,0.0263672-1.2480469,0.1044922
				l-1.4824219,8.4501953c-0.1298828,0.6503906-0.5195313,0.9882813-1.1962891,0.9882813h-2.8339844
				c-0.6757813,0-0.9619141-0.3378906-0.8320313-0.9882813l3.0419922-17.2646484
				c0.1298828-0.6503906,0.5205078-0.9882813,1.1962891-0.9882813H215.4438019z"/>
			<path class="st3" d="M224.8559113,95.1664352c0.6757813-3.6660156,3.1455078-5.5126953,7.4101563-5.5126953
				c2.0800781,0,3.5874023,0.5458984,4.550293,1.6123047c0.9101563,1.0400391,1.2226563,2.4697266,0.9101563,4.2646484
				l-0.4941406,2.9121094c-0.6757813,3.6660156-3.1459961,5.5117188-7.4370117,5.5117188
				c-2.0537109,0-3.5615234-0.5458984-4.5234375-1.6123047c-0.9101563-1.0400391-1.2226563-2.4697266-0.9101563-4.2636719
				L224.8559113,95.1664352z M232.9418488,95.2181931c0.1816406-0.9355469-0.2597656-1.4042969-1.3779297-1.4042969
				c-1.0664063,0-1.6904297,0.46875-1.8720703,1.4042969l-0.5458984,3.171875
				c-0.1826172,0.9101563,0.2597656,1.3779297,1.3515625,1.3779297c1.0664063,0,1.7167969-0.4677734,1.8984375-1.3779297
				L232.9418488,95.2181931z"/>
			<path class="st3" d="M240.2206573,95.1400681c0.6503906-3.6660156,3.0683594-5.4863281,7.28125-5.4863281
				c2.1582031,0,3.8222656,0.2861328,4.9921875,0.8847656c0.390625,0.2080078,0.6503906,0.4160156,0.7285156,0.5976563
				s0.078125,0.4677734,0,0.9101563l-1.7695313,10.0625c-0.1035156,0.6240234-0.4941406,1.0400391-1.1953125,1.2216797
				c-1.7167969,0.4160156-3.5878906,0.6240234-5.6425781,0.6240234c-1.9492188,0-3.328125-0.5722656-4.1855469-1.6904297
				c-0.8066406-1.0400391-1.0410156-2.4697266-0.703125-4.3154297L240.2206573,95.1400681z M246.9042511,93.8666306
				c-1.0664063,0-1.6914063,0.4677734-1.8730469,1.4296875l-0.5722656,3.171875
				c-0.1289063,0.8583984,0.2871094,1.2998047,1.2480469,1.2998047c0.546875,0,1.015625-0.0517578,1.3535156-0.1298828
				l0.9609375-5.4863281c0.0253906-0.1035156,0-0.1552734-0.1035156-0.1816406
				C247.6581573,93.8920212,247.3202667,93.8666306,246.9042511,93.8666306z"/>
			<path class="st3" d="M265.1288757,95.1400681c0.6503906-3.6660156,3.0683594-5.4863281,7.2539063-5.4863281
				c3.015625,0,4.7324219,1.2226563,5.1738281,3.640625c0.1308594,0.7021484-0.1816406,1.1435547-0.9101563,1.3779297
				l-2.3125,0.7802734c-0.4160156,0.1298828-0.7285156,0.1552734-0.9101563,0.0517578
				c-0.1835938-0.1044922-0.3125-0.3642578-0.390625-0.7539063c-0.15625-0.7021484-0.625-1.0400391-1.4296875-1.0400391
				c-0.9101563,0-1.4824219,0.4677734-1.6640625,1.4296875l-0.5722656,3.3544922
				c-0.1816406,0.9355469,0.2070313,1.4042969,1.1171875,1.4042969c0.7285156,0,1.3007813-0.3642578,1.7421875-1.0664063
				c0.3378906-0.6503906,0.859375-0.8837891,1.5351563-0.6503906l2.3652344,0.7539063
				c0.703125,0.234375,0.8574219,0.7021484,0.4160156,1.4560547c-1.4042969,2.3662109-3.640625,3.5625-6.734375,3.5625
				c-2.0800781,0-3.5625-0.5458984-4.4199219-1.6376953c-0.8320313-1.0146484-1.0917969-2.4707031-0.7539063-4.3164063
				L265.1288757,95.1400681z"/>
			<path class="st3" d="M279.6112976,95.1400681c0.6503906-3.6660156,3.0683594-5.4863281,7.2792969-5.4863281
				c2.1582031,0,3.8222656,0.2861328,4.9921875,0.8847656c0.390625,0.2080078,0.6503906,0.4160156,0.7285156,0.5976563
				s0.078125,0.4677734,0,0.9101563l-1.7675781,10.0625c-0.1035156,0.6240234-0.4941406,1.0400391-1.1953125,1.2216797
				c-1.7167969,0.4160156-3.5898438,0.6240234-5.6425781,0.6240234c-1.9511719,0-3.328125-0.5722656-4.1875-1.6904297
				c-0.8046875-1.0400391-1.0390625-2.4697266-0.7011719-4.3154297L279.6112976,95.1400681z M288.6073914,84.3236618
				c0.7285156,0,1.3007813,0.2597656,1.7421875,0.7539063l2.1835938,2.6523438
				c0.1816406,0.234375,0.234375,0.4160156,0.15625,0.5976563c-0.078125,0.2080078-0.3125,0.3125-0.7011719,0.3125h-2.0292969
				c-0.8574219,0-1.3769531-0.1816406-1.6113281-0.5722656l-0.5976563-0.9101563l-0.9628906,0.9101563
				c-0.390625,0.390625-0.9882813,0.5722656-1.7929688,0.5722656h-2.1074219c-0.3886719,0-0.5722656-0.1044922-0.5976563-0.3125
				c-0.0253906-0.1816406,0.1035156-0.3632813,0.3632813-0.5976563l3.1210938-2.6523438
				c0.6230469-0.4941406,1.3261719-0.7539063,2.1328125-0.7539063H288.6073914z M286.2929382,93.8666306
				c-1.0664063,0-1.6894531,0.4677734-1.8710938,1.4296875l-0.5722656,3.171875
				c-0.1308594,0.8583984,0.2851563,1.2998047,1.2480469,1.2998047c0.5449219,0,1.0136719-0.0517578,1.3515625-0.1298828
				l0.9628906-5.4863281c0.0253906-0.1035156,0-0.1552734-0.1054688-0.1816406
				C287.0468445,93.8920212,286.7089539,93.8666306,286.2929382,93.8666306z"/>
			<path class="st3" d="M307.3788757,90.0443649c0.6503906,0,0.9375,0.3378906,0.8066406,0.9873047l-2.2109375,12.6630859
				c-0.7011719,3.9003906-3.1445313,5.8496094-7.2792969,5.8496094c-2.6523438,0-4.3691406-0.8837891-5.1738281-2.6259766
				c-0.2871094-0.6494141-0.0527344-1.1699219,0.7285156-1.5078125l2.2089844-1.0136719
				c0.625-0.2861328,1.0917969-0.15625,1.3789063,0.3378906c0.3378906,0.5722656,0.8320313,0.8574219,1.5078125,0.8574219
				c0.9609375,0,1.5332031-0.4931641,1.7148438-1.5078125l0.15625-1.0136719
				c-0.4667969,0.078125-1.0664063,0.1035156-1.7675781,0.1035156c-1.9492188,0-3.328125-0.5458984-4.1347656-1.6640625
				c-0.7792969-1.0400391-1.0136719-2.4697266-0.6757813-4.3154297l1.0917969-6.1630859
				c0.1308594-0.6494141,0.5214844-0.9873047,1.1699219-0.9873047h2.8613281c0.6503906,0,0.9355469,0.3378906,0.8046875,0.9873047
				l-1.1171875,6.3447266c-0.1816406,0.9619141,0.2597656,1.4296875,1.3261719,1.4296875
				c0.46875,0,0.8847656-0.0253906,1.2226563-0.1035156l1.3515625-7.6708984
				c0.1289063-0.6494141,0.5195313-0.9873047,1.1699219-0.9873047H307.3788757z"/>
			<path class="st3" d="M326.9042664,86.9242477c0.6503906,0,0.9101563,0.3378906,0.8320313,0.9873047l-0.390625,2.1328125
				h1.8203125c0.6503906,0,0.9375,0.3378906,0.8066406,0.9873047l-0.3378906,1.9501953
				c-0.1308594,0.6767578-0.5195313,1.0146484-1.1699219,1.0146484h-1.7949219l-0.7011719,3.8222656
				c-0.1308594,0.7011719-0.078125,1.1699219,0.15625,1.4560547c0.2070313,0.2333984,0.6503906,0.3632813,1.2988281,0.3632813
				c0.390625,0,0.6503906,0.078125,0.78125,0.2080078c0.1289063,0.15625,0.15625,0.4160156,0.078125,0.8066406l-0.4160156,2.2353516
				c-0.1054688,0.6767578-0.4941406,1.0146484-1.1972656,1.0146484c-2.3144531,0.0253906-3.9003906-0.3642578-4.7578125-1.1962891
				c-0.9355469-0.9101563-1.2226563-2.4179688-0.8320313-4.5498047l0.7285156-4.1601563h-1.1191406
				c-0.6757813,0-0.9609375-0.3378906-0.8320313-1.0146484l0.3652344-1.9501953
				c0.1289063-0.6494141,0.4941406-0.9873047,1.1445313-0.9873047h1.1425781l0.3652344-2.1328125
				c0.1289063-0.6494141,0.5195313-0.9873047,1.1699219-0.9873047H326.9042664z"/>
			<path class="st3" d="M337.5898132,84.3236618c0.6757813,0,0.9628906,0.3378906,0.8320313,0.9882813l-0.8046875,4.4462891
				c0.6230469-0.078125,1.2207031-0.1044922,1.7929688-0.1044922c3.9257813,0,5.5390625,1.8984375,4.8632813,5.6943359
				l-1.2753906,7.2285156c-0.1289063,0.6503906-0.5195313,0.9882813-1.1699219,0.9882813h-2.859375
				c-0.6503906,0-0.9355469-0.3378906-0.8066406-0.9882813l1.2480469-7.1240234
				c0.1816406-0.9619141-0.2597656-1.4306641-1.2988281-1.4306641c-0.546875,0-0.9628906,0.0263672-1.2480469,0.1044922
				l-1.4824219,8.4501953c-0.1308594,0.6503906-0.5195313,0.9882813-1.1972656,0.9882813h-2.8339844
				c-0.6757813,0-0.9609375-0.3378906-0.8320313-0.9882813l3.0429688-17.2646484
				c0.1289063-0.6503906,0.5195313-0.9882813,1.1953125-0.9882813H337.5898132z"/>
			<path class="st3" d="M359.6386414,90.0443649c0.6757813,0,0.9628906,0.3378906,0.8320313,0.9873047l-1.8457031,10.4003906
				c-0.1308594,0.7548828-0.5976563,1.2744141-1.3515625,1.5605469c-1.7421875,0.6503906-3.640625,0.9619141-5.6953125,0.9619141
				c-1.9492188,0-3.328125-0.5458984-4.1347656-1.6123047c-0.7792969-1.0136719-1.0136719-2.4179688-0.6757813-4.2636719
				l1.2226563-7.046875c0.1308594-0.6494141,0.5195313-0.9873047,1.1953125-0.9873047h2.8339844
				c0.6777344,0,0.9628906,0.3378906,0.8320313,0.9873047l-1.2480469,7.125
				c-0.1816406,0.9619141,0.2617188,1.4296875,1.2753906,1.4296875c0.3632813,0,0.7265625-0.0263672,1.0664063-0.1035156
				c0.1289063-0.0263672,0.2070313-0.1044922,0.2324219-0.234375l1.4316406-8.2167969
				c0.1289063-0.6494141,0.5195313-0.9873047,1.1953125-0.9873047H359.6386414z"/>
			<path class="st3" d="M362.4980164,95.1664352c0.6757813-3.6660156,3.1464844-5.5126953,7.4101563-5.5126953
				c2.0800781,0,3.5878906,0.5458984,4.5507813,1.6123047c0.9101563,1.0400391,1.2226563,2.4697266,0.9101563,4.2646484
				l-0.4941406,2.9121094c-0.6757813,3.6660156-3.1464844,5.5117188-7.4375,5.5117188
				c-2.0527344,0-3.5605469-0.5458984-4.5234375-1.6123047c-0.9101563-1.0400391-1.2226563-2.4697266-0.9101563-4.2636719
				L362.4980164,95.1664352z M371.3905945,84.3236618c0.7285156,0,1.3007813,0.2597656,1.7167969,0.7802734l2.2089844,2.6523438
				c0.1816406,0.2333984,0.234375,0.4160156,0.15625,0.5976563s-0.3378906,0.2861328-0.7285156,0.2861328h-2.0019531
				c-0.8574219,0-1.4042969-0.1816406-1.6113281-0.5458984l-0.5976563-0.9365234l-0.9628906,0.9101563
				c-0.390625,0.390625-0.9882813,0.5722656-1.7929688,0.5722656h-2.1074219c-0.3886719,0-0.5722656-0.1044922-0.5976563-0.2861328
				s0.1035156-0.3642578,0.3632813-0.5976563l3.1210938-2.6523438c0.5976563-0.5205078,1.3007813-0.7802734,2.1328125-0.7802734
				H371.3905945z M370.5839539,95.2181931c0.1816406-0.9355469-0.2597656-1.4042969-1.3769531-1.4042969
				c-1.0664063,0-1.6914063,0.46875-1.8730469,1.4042969l-0.5449219,3.171875
				c-0.1835938,0.9101563,0.2597656,1.3779297,1.3515625,1.3779297c1.0664063,0,1.7167969-0.4677734,1.8984375-1.3779297
				L370.5839539,95.2181931z M371.7284851,79.5658493c0.7792969-0.4423828,1.3515625-0.4160156,1.7167969,0.0517578
				l1.0917969,1.4560547c0.3632813,0.4941406,0.2597656,0.8320313-0.3125,1.0400391l-4.9394531,1.5605469
				c-0.625,0.1816406-1.015625,0.1552734-1.1972656-0.078125l-0.5976563-0.8583984
				c-0.2851563-0.4423828-0.2070313-0.7539063,0.234375-0.9882813L371.7284851,79.5658493z"/>
			<path class="st3" d="M377.8632507,95.1400681c0.6503906-3.6660156,3.0683594-5.4863281,7.2558594-5.4863281
				c3.015625,0,4.7304688,1.2226563,5.1738281,3.640625c0.1289063,0.7021484-0.1816406,1.1435547-0.9101563,1.3779297
				l-2.3144531,0.7802734c-0.4160156,0.1298828-0.7285156,0.1552734-0.9101563,0.0517578
				c-0.1816406-0.1044922-0.3125-0.3642578-0.390625-0.7539063c-0.1542969-0.7021484-0.6230469-1.0400391-1.4296875-1.0400391
				c-0.9101563,0-1.4824219,0.4677734-1.6640625,1.4296875l-0.5722656,3.3544922
				c-0.1816406,0.9355469,0.2089844,1.4042969,1.1191406,1.4042969c0.7285156,0,1.2988281-0.3642578,1.7421875-1.0664063
				c0.3378906-0.6503906,0.8574219-0.8837891,1.5332031-0.6503906l2.3671875,0.7539063
				c0.7011719,0.234375,0.8574219,0.7021484,0.4160156,1.4560547c-1.4042969,2.3662109-3.640625,3.5625-6.734375,3.5625
				c-2.0800781,0-3.5625-0.5458984-4.4199219-1.6376953c-0.8320313-1.0146484-1.09375-2.4707031-0.7558594-4.3164063
				L377.8632507,95.1400681z"/>
			<path class="st3" d="M419.9589539,85.1039352c0.7539063,0,0.9101563,0.3642578,0.5195313,1.0664063l-8.6328125,16.484375
				c-0.3125,0.5976563-0.8046875,0.9101563-1.5078125,0.9101563h-3.2753906c-0.703125,0-1.0917969-0.2861328-1.1972656-0.8583984
				l-2.8339844-16.5361328c-0.1289063-0.7021484,0.1816406-1.0664063,0.9375-1.0664063h2.9121094
				c0.6230469,0,1.0644531,0.078125,1.3242188,0.234375c0.234375,0.1552734,0.3652344,0.4414063,0.390625,0.8574219
				l0.9101563,8.8925781c0.1035156,1.0136719,0.1035156,2.1318359,0,3.3544922h0.234375
				c0.2597656-1.1962891,0.6230469-2.3144531,1.0917969-3.328125l4.0820313-8.9189453
				c0.3378906-0.7275391,1.0136719-1.0917969,2.0273438-1.0917969H419.9589539z"/>
			<path class="st3" d="M425.8593445,90.0443649c0.6757813,0,0.9628906,0.3378906,0.8320313,0.9873047l-2.0273438,11.5449219
				c-0.1308594,0.6503906-0.5195313,0.9882813-1.1972656,0.9882813h-2.8339844
				c-0.6757813,0-0.9609375-0.3378906-0.8320313-0.9882813l2.0292969-11.5449219
				c0.1289063-0.6494141,0.5195313-0.9873047,1.1953125-0.9873047H425.8593445z M426.0155945,84.7914352
				c0.7539063,0,1.2226563,0.1308594,1.4570313,0.4160156c0.2324219,0.2861328,0.2597656,0.7802734,0.1289063,1.5087891
				l-0.0527344,0.2861328c-0.1289063,0.7275391-0.3632813,1.2216797-0.6757813,1.5078125
				c-0.3105469,0.2861328-0.8320313,0.4160156-1.5859375,0.4160156h-1.2988281
				c-0.7539063,0-1.2226563-0.1298828-1.4570313-0.4160156s-0.2597656-0.7802734-0.1289063-1.5078125l0.0253906-0.2861328
				c0.1289063-0.7285156,0.3632813-1.2226563,0.7011719-1.5087891c0.3378906-0.2851563,0.859375-0.4160156,1.5859375-0.4160156
				H426.0155945z"/>
			<path class="st3" d="M428.7460632,95.1400681c0.3125-1.7421875,1.1171875-3.09375,2.3925781-4.0556641
				c1.2734375-0.9619141,2.9628906-1.4306641,5.0175781-1.4306641c1.9492188,0,3.40625,0.4160156,4.4199219,1.2226563
				c1.0136719,0.8574219,1.4296875,2.0537109,1.2226563,3.5878906c-0.1835938,1.1962891-0.78125,2.1318359-1.7949219,2.7822266
				c-1.0136719,0.6494141-2.3398438,0.9882813-4.0039063,0.9882813c-0.8847656,0-1.8730469-0.0527344-2.9375-0.15625
				l-0.1054688,0.5458984c-0.1816406,1.1181641,0.2871094,1.6640625,1.4042969,1.6640625
				c0.9101563,0,1.6640625-0.3125,2.2617188-0.9365234c0.4433594-0.4931641,0.9628906-0.5976563,1.5097656-0.2597656
				l1.6894531,0.8583984c0.6230469,0.3378906,0.7011719,0.8320313,0.234375,1.5078125
				c-1.2226563,1.6640625-3.328125,2.4960938-6.3183594,2.4960938c-2.2109375,0-3.796875-0.5976563-4.7324219-1.7675781
				c-0.8320313-1.0664063-1.0917969-2.5224609-0.7539063-4.3427734L428.7460632,95.1400681z M433.8417664,105.5150681
				c0.5976563,0,0.9882813,0.1298828,1.1699219,0.3632813c0.1816406,0.234375,0.234375,0.6503906,0.1308594,1.2480469
				l-0.1308594,0.8320313c-0.1035156,0.5986328-0.2851563,0.9882813-0.5722656,1.2226563
				c-0.2597656,0.2333984-0.7011719,0.3378906-1.2988281,0.3378906h-0.78125c-0.5976563,0-0.9882813-0.1044922-1.1953125-0.3378906
				c-0.1816406-0.234375-0.234375-0.6240234-0.1035156-1.2226563l0.1289063-0.8320313
				c0.1035156-0.5976563,0.2871094-1.0136719,0.5722656-1.2480469c0.2851563-0.2333984,0.7011719-0.3632813,1.3007813-0.3632813
				H433.8417664z M437.6894226,84.3236618c0.7285156,0,1.3007813,0.2597656,1.7167969,0.7802734l2.2089844,2.6523438
				c0.1835938,0.2333984,0.234375,0.4160156,0.15625,0.5976563s-0.3378906,0.2861328-0.7265625,0.2861328h-2.0019531
				c-0.859375,0-1.4042969-0.1816406-1.6132813-0.5458984l-0.5976563-0.9365234l-0.9628906,0.9101563
				c-0.3886719,0.390625-0.9863281,0.5722656-1.7929688,0.5722656h-2.1054688c-0.390625,0-0.5722656-0.1044922-0.5996094-0.2861328
				c-0.0253906-0.1816406,0.1054688-0.3642578,0.3652344-0.5976563l3.1191406-2.6523438
				c0.5976563-0.5205078,1.3007813-0.7802734,2.1328125-0.7802734H437.6894226z M435.6366882,93.0863571
				c-1.09375,0-1.7421875,0.5458984-1.9765625,1.6123047l-0.078125,0.2851563
				c0.6503906,0.078125,1.2480469,0.1308594,1.7929688,0.1308594c1.015625,0,1.5878906-0.3125,1.6914063-0.9628906
				C437.1698914,93.4506149,436.7011414,93.0863571,435.6366882,93.0863571z"/>
			<path class="st3" d="M450.7675476,86.9242477c0.6503906,0,0.9101563,0.3378906,0.8320313,0.9873047l-0.390625,2.1328125
				h1.8203125c0.6503906,0,0.9375,0.3378906,0.8066406,0.9873047l-0.3378906,1.9501953
				c-0.1308594,0.6767578-0.5195313,1.0146484-1.1699219,1.0146484h-1.7949219l-0.7011719,3.8222656
				c-0.1308594,0.7011719-0.078125,1.1699219,0.15625,1.4560547c0.2070313,0.2333984,0.6503906,0.3632813,1.2988281,0.3632813
				c0.390625,0,0.6503906,0.078125,0.78125,0.2080078c0.1289063,0.15625,0.15625,0.4160156,0.078125,0.8066406l-0.4160156,2.2353516
				c-0.1054688,0.6767578-0.4941406,1.0146484-1.1972656,1.0146484c-2.3144531,0.0253906-3.9003906-0.3642578-4.7578125-1.1962891
				c-0.9355469-0.9101563-1.2226563-2.4179688-0.8320313-4.5498047l0.7285156-4.1601563h-1.1191406
				c-0.6757813,0-0.9609375-0.3378906-0.8320313-1.0146484l0.3652344-1.9501953
				c0.1289063-0.6494141,0.4941406-0.9873047,1.1445313-0.9873047h1.1425781l0.3652344-2.1328125
				c0.1289063-0.6494141,0.5195313-0.9873047,1.1699219-0.9873047H450.7675476z"/>
		</g>
	</g>
	<g>
		<g>
			<path class="st0" d="M191.3474426,18.2440834c2.1404419,0,2.8284607,1.0702171,2.0640717,3.1342869l-16.8943787,48.4663391
				c-0.6116638,1.7582397-1.9113464,2.6757278-3.9754028,2.6757278h-9.5552216
				c-2.0640717,0-3.4401093-0.8407516-3.9754181-2.5226288l-16.9707336-48.6194382
				c-0.7651367-2.0640697,0-3.1342869,2.2167969-3.1342869h8.7144623c3.287384,0,5.1987305,1.0702171,5.7332764,3.2106514
				l7.2628021,26.1445122c0.840744,2.9811859,1.3760529,6.2685738,1.6815033,9.8614197h0.6880188
				c0.2290955-3.5164795,0.764389-6.8038712,1.6051483-9.7850571l7.2627869-26.2208748
				c0.5353088-2.1404343,2.3695374-3.2106514,5.5041962-3.2106514H191.3474426z"/>
			<path class="st0" d="M208.2440796,32.7685623c1.9877014,0,2.9811859,0.9938545,2.9811859,2.9051971v33.941864
				c0,1.910965-0.9934845,2.9048157-2.9811859,2.9048157h-8.3326569c-1.9877014,0-2.9819336-0.9938507-2.9819336-2.9048157
				v-33.941864c0-1.9113426,0.9942322-2.9051971,2.9819336-2.9051971H208.2440796z"/>
			<path class="st0" d="M216.4247437,49.2811241c0-5.733654,1.6051331-10.0908852,4.8925171-13.1488075
				c3.2873993-2.9815598,8.0264435-4.510334,14.2186584-4.510334c6.3449402,0,11.1611023,1.6055145,14.5248566,4.8925285
				c3.1346588,2.9815598,4.6634369,6.9565964,4.6634369,11.8491249v4.2045021c0,2.6757317-1.3760529,3.9750404-4.2045135,3.9750404
				h-19.8763123v1.4524078c0,3.2873917,1.682251,4.969265,4.9688873,4.969265c2.5993652,0,4.6634369-0.9174881,6.1158447-2.8284569
				c0.9942322-1.3760452,2.370285-1.6055107,4.2808685-0.7647591l5.2751007,2.2935333
				c2.0640717,0.9938545,2.5222473,2.4462662,1.4524078,4.4339676c-2.9048157,5.0452576-8.638092,7.5678864-17.276947,7.5678864
				c-6.4976654,0-11.3901825-1.6818771-14.6775818-5.0452576c-2.9048157-3.0579224-4.3572235-7.2624245-4.3572235-12.6135101
				V49.2811241z M240.4284363,46.2995644c0-3.0579224-1.6051331-4.5866966-4.8925171-4.5866966
				c-3.2866364,0-4.8925323,1.5287743-4.8925323,4.5866966v0.9938545h9.7850494V46.2995644z"/>
			<path class="st0" d="M274.3721619,23.5951691c1.9877319,0,2.9812012,0.9938526,2.9812012,2.9048214v6.2685719h5.2750854
				c1.910614,0,2.9048157,0.9938545,2.9048157,2.9051971v5.7332764c0,1.987709-0.9942017,2.9815598-2.9048157,2.9815598h-5.2750854
				v11.2374649c0,2.0640717,0.3825684,3.4401169,1.2233276,4.2808685c0.6880188,0.6880226,2.0640564,1.0702171,3.9754028,1.0702171
				c1.986969,0,2.9811707,0.9938545,2.9811707,2.9815598v6.5740318c0,1.9877014-0.9942017,2.9815598-2.9811707,2.9815598
				c-6.8038635,0.0763626-11.6964111-1.0702209-14.6775818-3.5164871
				c-3.2110291-2.6757278-4.8161621-7.1096954-4.8161621-13.3782692V44.3885956h-3.287384
				c-1.9113464,0-2.9048157-0.9938507-2.9048157-2.9815598v-5.7332764c0-1.9113426,0.9934692-2.9051971,2.9048157-2.9051971
				h3.287384v-6.2685719c0-1.9109688,0.9934692-2.9048214,2.9811707-2.9048214H274.3721619z"/>
			<path class="st0" d="M326.2030334,18.2440834c2.2167969,0,3.287384,1.0702171,3.287384,3.2106514v6.8802338
				c0,2.2167969-1.0705872,3.287014-3.287384,3.287014h-20.1817932v8.8675652h16.1300049
				c2.2167969,0,3.287384,1.0702171,3.287384,3.2110252v6.8798599c0,2.2171707-1.0705872,3.2873878-3.287384,3.2873878h-16.1300049
				v15.4419708c0,2.1404343-1.0698242,3.2106476-3.2102661,3.2106476h-8.638855c-2.2167969,0-3.287384-1.0702133-3.287384-3.2106476
				V21.4547348c0-2.1404343,1.0705872-3.2106514,3.287384-3.2106514H326.2030334z"/>
			<path class="st0" d="M347.6867065,31.6219826c11.8491211,0,17.8114929,5.5041885,17.8114929,16.512188V66.939888
				c0,2.293541-0.9934692,3.8223114-2.9048157,4.5867004c-3.363739,1.4524078-8.4089966,2.1404343-15.1365051,2.1404343
				c-6.956604,0-11.7727661-1.0702209-14.4477539-3.134285c-2.5229797-1.9109726-3.7463074-5.0452576-3.7463074-9.5555916
				c0-4.8161621,1.4523926-8.1795425,4.3579712-10.0908852c2.7513428-1.7582397,7.4911499-2.6757278,14.2186584-2.6757278
				l3.4401245,0.0767365V46.375927c0-2.5989914-1.4524231-3.898674-4.2808838-3.898674
				c-2.0640564,0-3.6699524,0.8407516-4.9688721,2.5989914c-0.9942322,1.376049-2.4466553,1.6818771-4.2045288,0.9938545
				l-5.5041809-2.2931633c-2.0640564-0.9174881-2.5993652-2.2935333-1.605896-4.2045021
				C333.4673157,34.2977104,339.1242371,31.6219826,347.6867065,31.6219826z M351.2795715,57.9192238
				c-0.6880188-0.0763626-1.9877014-0.0763626-4.0517883-0.0763626c-2.6757202,0-4.0517883,0.9938507-4.0517883,3.0579224
				c0,2.0640678,1.2996826,3.0579224,3.8990479,3.0579224c1.7578735,0,3.0575562-0.0767365,3.8219604-0.2294655
				c0.2298279,0,0.3825684-0.1531029,0.3825684-0.3821945V57.9192238z"/>
			<path class="st0" d="M392.2562561,31.6219826c1.9105835,0,2.9048157,0.9938545,2.9048157,2.9048195v6.4980431
				c0,1.9877052-0.9942322,2.9811821-2.9048157,2.9811821h-2.9055786c-1.3760376,0-2.5222473,0.0767403-3.5164795,0.3058319
				c-0.2290955,0-0.3818054,0.1531029-0.3818054,0.458931v24.8448334c0,1.910965-0.9942322,2.9048157-2.9812012,2.9048157
				h-8.3326416c-1.9877014,0-2.9819336-0.9938507-2.9819336-2.9048157V38.6549454
				c0-2.2168007,1.0705872-3.7459488,3.2110291-4.5867004c3.745575-1.4524078,8.8679504-2.2167969,15.5183411-2.4462624H392.2562561
				z"/>
			<path class="st0" d="M438.6592712,31.6219826c11.0083923,0,16.5125732,5.5041885,16.5125732,16.512188v21.4814529
				c0,1.910965-0.9934998,2.9048157-2.9048157,2.9048157h-8.4090271c-1.9113464,0-2.9048157-0.9938507-2.9048157-2.9048157
				V48.5163612c0-2.675354-1.2996826-4.0513992-3.8990479-4.0513992c-0.9934692,0-2.0640564,0.1527252-3.2110291,0.3821907
				c0.2298584,0.9938545,0.3062134,2.1404343,0.3062134,3.5164833v21.2519875c0,1.910965-0.9942322,2.9048157-2.9812012,2.9048157
				h-8.3326416c-1.9877014,0-2.9819336-0.9938507-2.9819336-2.9048157V48.5163612
				c0-2.675354-1.2989197-4.0513992-3.8982849-4.0513992c-0.8407593,0-1.7586365,0.0763626-2.5993652,0.2290916
				c-0.2290955,0.0767365-0.3054504,0.2294655-0.3054504,0.458931v24.4626389c0,1.910965-0.9942322,2.9048157-2.9048462,2.9048157
				h-8.4089966c-1.9113464,0-2.9055786-0.9938507-2.9055786-2.9048157V39.0371361
				c0-2.2167969,1.0705872-3.745945,3.1346741-4.5866966c4.8925171-1.9109688,10.0905151-2.8284569,15.594696-2.8284569
				c3.7463074,0,6.8802185,0.6880226,9.4032288,1.9877052C430.5564575,32.3100052,434.4547729,31.6219826,438.6592712,31.6219826z"
				/>
		</g>
	</g>
	<g>
		<path class="st2" d="M202.003479,26.1018257c0,0-2.2456055-1.9450207-4.3674469-2.033432
			c0,0,2.9528961,1.2731056,4.3674469,3.4126301c0,0,0.3005981,1.9450226,1.2554321,2.935215
			c0,0-3.2181244,0.0353642-4.9686432-1.3968792c-1.7505341-1.4322433-2.3694-3.3242188-2.4931641-3.8016338
			c-0.1237793-0.4774151-0.4420624-1.8389301-0.9017944-2.1748886c0,0,4.1552734-0.7426453,7.1789093,1.361515
			C202.0742188,24.4043522,201.9858093,25.2177258,202.003479,26.1018257z"/>
		<path class="st0" d="M208.6094055,20.0215607c0,0-5.3753357,2.6493282-4.8979187,9.6366997
			c0,0-2.0157623-2.5462093-0.8487396-5.8350658c1.1670074-3.2888546,4.9598083-5.5433121,8.2221375-6.4450951
			c0,0-0.0265198,2.7427826,0.1060944,3.9308643c0.1326141,1.1880798,0.1856537,6.1478863-5.9676819,9.012373
			C205.2232971,30.3213367,203.9590302,24.3359737,208.6094055,20.0215607z"/>
	</g>
</g>
</svg>
